<svg xmlns="http://www.w3.org/2000/svg" viewBox="0 0 64 64" fill="none">
  <!-- Open book -->
  <path d="M8 16 C8 12 12 10 18 10 C24 10 30 12 32 16 C34 12 40 10 46 10 C52 10 56 12 56 16 L56 48 C56 48 52 46 46 46 C40 46 34 48 32 52 C30 48 24 46 18 46 C12 46 8 48 8 48 Z" fill="#4B2E83" stroke="#2C194A" stroke-width="2" stroke-linejoin="round"/>
  <!-- Center spine -->
  <line x1="32" y1="16" x2="32" y2="52" stroke="#2C194A" stroke-width="1.5"/>
  <!-- Sparkle star -->
  <path d="M32 4 L34 10 L40 10 L35 14 L37 20 L32 16 L27 20 L29 14 L24 10 L30 10 Z" fill="#F4D27A" stroke="#2C194A" stroke-width="0.8"/>
</svg>
